<svg width="34" height="34" viewBox="0 0 34 34" fill="none" xmlns="http://www.w3.org/2000/svg">
<path d="M28.3861 7.16121V26.8391C28.3861 27.289 28.2074 27.7205 27.8893 28.0386C27.5712 28.3567 27.1397 28.5354 26.6898 28.5354H7.01192C6.56201 28.5354 6.13054 28.3567 5.81241 28.0386C5.49428 27.7205 5.31555 27.289 5.31555 26.8391V7.16121C5.31555 6.71131 5.49428 6.27983 5.81241 5.9617C6.13054 5.64357 6.56201 5.46484 7.01192 5.46484H26.6898C27.1397 5.46484 27.5712 5.64357 27.8893 5.9617C28.2074 6.27983 28.3861 6.71131 28.3861 7.16121ZM12.101 14.286H8.70829V25.1427H12.101V14.286ZM12.4064 10.5539C12.4082 10.2973 12.3594 10.0428 12.2628 9.80506C12.1663 9.56728 12.0238 9.35085 11.8436 9.16812C11.6634 8.98539 11.449 8.83995 11.2125 8.7401C10.9761 8.64024 10.7224 8.58794 10.4657 8.58616H10.4047C9.88276 8.58616 9.38225 8.79348 9.01322 9.16251C8.64419 9.53154 8.43687 10.0321 8.43687 10.5539C8.43687 11.0758 8.64419 11.5763 9.01322 11.9454C9.38225 12.3144 9.88276 12.5217 10.4047 12.5217C10.6613 12.528 10.9167 12.4837 11.1562 12.3913C11.3957 12.2989 11.6147 12.1602 11.8006 11.9831C11.9865 11.806 12.1356 11.5941 12.2396 11.3593C12.3435 11.1246 12.4002 10.8717 12.4064 10.615V10.5539ZM24.9934 18.5472C24.9934 15.2834 22.9171 14.0145 20.8543 14.0145C20.1789 13.9807 19.5064 14.1246 18.904 14.4317C18.3015 14.7389 17.7901 15.1987 17.4208 15.7652H17.3258V14.286H14.1367V25.1427H17.5294V19.3683C17.4804 18.7769 17.6666 18.19 18.0478 17.7352C18.4289 17.2803 18.9742 16.9942 19.565 16.9391H19.694C20.7729 16.9391 21.5735 17.6176 21.5735 19.3276V25.1427H24.9663L24.9934 18.5472Z" fill="white"/>
</svg>
