<svg width="34" height="34" viewBox="0 0 34 34" fill="none" xmlns="http://www.w3.org/2000/svg">
<path d="M16.921 16.9998C16.921 15.9389 17.3425 14.9215 18.0926 14.1713C18.8428 13.4212 19.8602 12.9998 20.9211 12.9998C21.9819 12.9998 22.9994 13.4212 23.7495 14.1713C24.4997 14.9215 24.9211 15.9389 24.9211 16.9998C24.9211 18.0607 24.4997 19.0781 23.7495 19.8283C22.9994 20.5784 21.9819 20.9998 20.9211 20.9998C19.8602 20.9998 18.8428 20.5784 18.0926 19.8283C17.3425 19.0781 16.921 18.0607 16.921 16.9998V16.9998Z" stroke="white" stroke-width="1.12001"/>
<path d="M8.92102 25C8.92102 23.9392 9.34245 22.9217 10.0926 22.1716C10.8428 21.4214 11.8602 21 12.9211 21H16.9211V25C16.9211 26.0609 16.4997 27.0783 15.7495 27.8285C14.9994 28.5787 13.9819 29.0001 12.9211 29.0001C11.8602 29.0001 10.8428 28.5787 10.0926 27.8285C9.34245 27.0783 8.92102 26.0609 8.92102 25Z" stroke="white" stroke-width="1.12001"/>
<path d="M16.921 5V13.0001H20.9211C21.9819 13.0001 22.9994 12.5787 23.7495 11.8285C24.4997 11.0783 24.9211 10.0609 24.9211 9.00004C24.9211 7.93916 24.4997 6.92174 23.7495 6.17158C22.9994 5.42143 21.9819 5 20.9211 5H16.921Z" stroke="white" stroke-width="1.12001"/>
<path d="M8.92102 9.00004C8.92102 10.0609 9.34245 11.0783 10.0926 11.8285C10.8428 12.5787 11.8602 13.0001 12.9211 13.0001H16.9211V5H12.9211C11.8602 5 10.8428 5.42143 10.0926 6.17158C9.34245 6.92174 8.92102 7.93916 8.92102 9.00004Z" stroke="white" stroke-width="1.12001"/>
<path d="M8.92102 16.9998C8.92102 18.0607 9.34245 19.0781 10.0926 19.8283C10.8428 20.5784 11.8602 20.9998 12.9211 20.9998H16.9211V12.9998H12.9211C11.8602 12.9998 10.8428 13.4212 10.0926 14.1713C9.34245 14.9215 8.92102 15.9389 8.92102 16.9998Z" stroke="white" stroke-width="1.12001"/>
</svg>
