<svg width="66" height="20" viewBox="0 0 66 20" fill="none" xmlns="http://www.w3.org/2000/svg">
<path d="M14.976 2.248L9.312 13.168V19H5.952V13.168L0.264 2.248H4.056L7.656 9.904L11.232 2.248H14.976ZM29.4658 5.704V19H26.0818V17.32C25.6498 17.896 25.0818 18.352 24.3778 18.688C23.6898 19.008 22.9378 19.168 22.1218 19.168C21.0818 19.168 20.1618 18.952 19.3618 18.52C18.5618 18.072 17.9298 17.424 17.4658 16.576C17.0178 15.712 16.7938 14.688 16.7938 13.504V5.704H20.1538V13.024C20.1538 14.08 20.4178 14.896 20.9458 15.472C21.4738 16.032 22.1938 16.312 23.1058 16.312C24.0338 16.312 24.7618 16.032 25.2898 15.472C25.8178 14.896 26.0818 14.08 26.0818 13.024V5.704H29.4658ZM40.125 19L37.389 14.872L34.965 19H31.365L35.709 12.328L31.317 5.704H35.109L37.821 9.808L40.269 5.704H43.869L39.501 12.328L43.917 19H40.125ZM47.4459 4.12C46.8539 4.12 46.3579 3.936 45.9579 3.568C45.5739 3.184 45.3819 2.712 45.3819 2.152C45.3819 1.592 45.5739 1.128 45.9579 0.759999C46.3579 0.375999 46.8539 0.183999 47.4459 0.183999C48.0379 0.183999 48.5259 0.375999 48.9099 0.759999C49.3099 1.128 49.5099 1.592 49.5099 2.152C49.5099 2.712 49.3099 3.184 48.9099 3.568C48.5259 3.936 48.0379 4.12 47.4459 4.12ZM49.1019 5.704V19H45.7419V5.704H49.1019ZM59.7896 5.512C61.3736 5.512 62.6536 6.016 63.6296 7.024C64.6056 8.016 65.0936 9.408 65.0936 11.2V19H61.7336V11.656C61.7336 10.6 61.4696 9.792 60.9416 9.232C60.4136 8.656 59.6936 8.368 58.7816 8.368C57.8536 8.368 57.1176 8.656 56.5736 9.232C56.0456 9.792 55.7816 10.6 55.7816 11.656V19H52.4216V5.704H55.7816V7.36C56.2296 6.784 56.7976 6.336 57.4856 6.016C58.1896 5.68 58.9576 5.512 59.7896 5.512Z" fill="white"/>
</svg>
